# xmcd
#
# Track frame offsets: 
#        150
#        8962
#        24937
#        35437
#        43762
#        65362
#        84880
#        99542
#        113867
#
# Disc length: 1820 seconds
#
# Revision: 0
# Processed by: cddbd v1.5.2PL0 Copyright (c) Steve Scherf et al.
# Submitted via: ExactAudioCopyFreeDBPlugin 1.0
#
DISCID=64071a09
DTITLE=The Blueswater - Blues! - The Live Album 2015
DYEAR=2015
DGENRE=Blues
TTITLE0=Death Letter
TTITLE1=I Just Wanna Make Love To You
TTITLE2=Roll Over Beethoven
TTITLE3=Hard Headed Woman
TTITLE4=How Blue Can You Get
TTITLE5=The Hunter
TTITLE6=Do I Move You
TTITLE7=Brick
TTITLE8=Love Ain't A Love Song
EXTD=
EXTT0=
EXTT1=
EXTT2=
EXTT3=
EXTT4=
EXTT5=
EXTT6=
EXTT7=
EXTT8=
PLAYORDER=
